<?xml version="1.0" standalone="no"?>
<!DOCTYPE svg PUBLIC "-//W3C//DTD SVG 20010904//EN"
 "http://www.w3.org/TR/2001/REC-SVG-20010904/DTD/svg10.dtd">
<svg version="1.0" xmlns="http://www.w3.org/2000/svg"
 width="250.000000pt" height="250.000000pt" viewBox="0 0 250.000000 250.000000"
 preserveAspectRatio="xMidYMid meet">
<metadata>
Created by potrace 1.14, written by Peter Selinger 2001-2017
</metadata>
<g transform="translate(0.000000,250.000000) scale(0.100000,-0.100000)"
fill="#000000" stroke="none">
<path d="M1380 2465 c0 -14 -3 -25 -7 -26 -5 0 -40 -2 -80 -4 -214 -11 -374
-125 -408 -290 -30 -144 9 -249 112 -307 43 -24 64 -30 125 -31 40 0 87 2 105
6 32 7 114 47 138 67 10 8 13 -31 13 -190 0 -111 -5 -218 -10 -238 -5 -20 -10
-44 -11 -52 -4 -27 -44 -95 -73 -124 -62 -62 -172 -91 -248 -66 -58 19 -99 62
-99 104 0 81 81 151 304 262 l85 42 0 50 1 50 -46 -18 c-79 -31 -221 -102
-221 -110 0 -4 -10 -10 -23 -13 -46 -12 -165 -123 -191 -179 -69 -145 50 -285
245 -289 106 -3 205 35 272 105 53 55 75 92 102 176 22 65 23 75 24 206 l1
102 60 38 c33 21 60 42 60 46 0 4 4 8 10 8 5 0 8 -15 6 -32 -3 -18 -7 -58 -11
-88 -11 -111 -18 -145 -40 -219 -31 -100 -47 -137 -84 -189 -79 -108 -199
-182 -320 -198 -160 -21 -272 10 -369 103 -24 24 -46 43 -49 43 -11 0 2 -100
18 -138 24 -57 70 -99 146 -134 78 -35 115 -42 228 -42 71 0 109 6 178 28 48
16 98 37 111 47 13 11 28 19 33 19 20 0 123 103 162 163 102 157 140 352 118
607 -4 41 -10 89 -13 105 -6 33 -9 49 -19 115 -4 25 -10 49 -15 53 -4 4 -34
-28 -66 -72 -32 -43 -77 -94 -99 -111 l-40 -32 -3 336 -2 336 -55 0 c-52 0
-55 -1 -55 -25z m-4 -252 c1 -147 -8 -181 -66 -241 -89 -92 -233 -99 -297 -16
-30 40 -39 126 -18 168 7 14 11 27 8 29 -7 8 41 78 73 109 30 28 108 66 159
77 16 4 54 7 85 6 l55 0 1 -132z"/>
<path d="M78 711 c-33 -29 -33 -30 -36 -138 l-3 -108 36 -35 c31 -30 43 -35
85 -35 40 0 54 5 79 29 28 27 31 35 31 93 l0 63 -55 0 c-54 0 -55 0 -55 -30 0
-24 4 -30 21 -30 16 0 20 -5 17 -26 -4 -35 -31 -53 -55 -38 -15 9 -18 27 -18
114 0 87 3 105 18 114 22 14 50 -2 57 -35 4 -18 13 -25 38 -27 30 -3 32 -2 32
31 0 82 -124 119 -192 58z"/>
<path d="M420 724 c0 -9 -13 -77 -30 -151 -39 -173 -39 -173 5 -173 28 0 35 4
35 20 0 17 7 20 40 20 33 0 40 -3 40 -20 0 -16 7 -20 36 -20 l36 0 -7 48 c-4
26 -13 70 -20 97 -7 28 -18 83 -25 123 l-13 72 -49 0 c-38 0 -48 -3 -48 -16z
m65 -186 c7 -47 7 -48 -20 -48 -20 0 -25 4 -22 18 3 9 8 34 12 56 8 48 21 37
30 -26z"/>
<path d="M690 570 l0 -170 35 0 35 0 0 70 0 70 33 0 c46 0 57 -15 57 -82 l0
-58 35 0 35 0 0 68 c0 39 -5 73 -12 80 -9 9 -9 17 1 35 7 13 11 43 9 67 -3 38
-8 48 -37 67 -28 19 -47 23 -112 23 l-79 0 0 -170z m154 88 c17 -27 -5 -52
-48 -56 l-36 -3 0 41 0 41 36 -3 c22 -2 42 -10 48 -20z"/>
<path d="M1038 640 c-2 -54 -2 -131 0 -170 l4 -70 80 0 c78 0 81 1 114 34 34
34 34 35 34 124 0 50 -4 102 -10 116 -16 44 -65 66 -147 66 l-72 0 -3 -100z
m141 26 c8 -9 11 -47 9 -107 l-3 -94 -37 -3 -38 -3 0 110 0 111 29 0 c16 0 34
-6 40 -14z"/>
<path d="M1380 570 l0 -170 95 0 95 0 0 30 0 30 -60 0 -60 0 0 40 0 40 60 0
60 0 0 30 0 30 -60 0 -60 0 0 40 0 40 60 0 60 0 0 30 0 30 -95 0 -95 0 0 -170z"/>
<path d="M1690 571 l0 -171 35 0 35 0 0 82 0 83 23 -35 c12 -20 28 -44 35 -55
7 -11 17 -32 23 -47 8 -22 18 -28 40 -28 l29 0 0 170 0 170 -30 0 -29 0 -3
-92 -3 -93 -46 90 c-42 82 -49 90 -78 93 l-31 3 0 -170z"/>
<path d="M2178 673 c-1 -38 -1 -114 0 -170 l4 -103 39 0 39 0 0 122 0 122 28
-34 29 -34 23 32 c13 18 27 32 32 32 4 0 8 -54 8 -120 l0 -120 35 0 35 0 0
170 0 170 -37 0 c-28 0 -45 -8 -68 -30 l-31 -30 -29 30 c-22 23 -38 30 -66 30
l-37 0 -4 -67z"/>
<path d="M581 313 c-42 -5 -78 -28 -87 -55 -3 -11 -13 -29 -23 -39 -9 -11 -26
-38 -38 -60 -25 -48 -19 -83 20 -113 24 -18 32 -19 89 -8 36 7 70 20 82 32 24
24 13 25 -44 5 -85 -30 -135 -14 -128 41 3 26 8 28 86 44 90 19 130 40 74 40
-17 0 -52 -5 -77 -12 -24 -7 -48 -9 -52 -5 -4 4 13 28 38 53 42 42 51 46 107
51 43 4 62 10 62 19 0 14 -33 16 -109 7z"/>
<path d="M1807 254 c-40 -21 -24 -34 33 -27 30 3 50 2 50 -4 0 -6 -34 -40 -75
-78 -86 -77 -95 -100 -37 -91 20 3 63 8 94 12 74 9 65 24 -15 24 l-62 1 63 55
c34 31 62 61 62 68 0 19 -44 56 -66 56 -10 -1 -32 -8 -47 -16z"/>
<path d="M938 230 c-10 -18 -25 -30 -38 -30 -11 0 -20 -4 -20 -10 0 -5 7 -10
16 -10 13 0 15 -6 9 -27 -10 -37 -8 -73 6 -89 16 -19 54 -17 70 2 12 15 10 16
-19 10 l-32 -8 0 44 c0 54 13 68 63 68 45 0 48 23 4 28 -23 3 -26 7 -21 28 9
35 -17 31 -38 -6z"/>
<path d="M1331 247 c-16 -20 -6 -25 49 -19 28 2 50 1 50 -4 0 -5 -34 -41 -77
-81 -62 -57 -75 -74 -66 -84 10 -10 23 -10 64 -1 28 7 66 12 85 12 21 0 33 4
29 10 -3 6 -34 10 -68 10 l-62 1 63 57 c34 31 62 62 62 68 -1 37 -103 62 -129
31z"/>
<path d="M1578 227 c-62 -55 -74 -104 -37 -151 27 -35 67 -34 101 2 39 41 58
86 58 137 l0 45 -42 0 c-34 0 -51 -7 -80 -33z m92 -35 c0 -51 -51 -114 -89
-110 -34 4 -39 41 -14 94 13 29 26 41 48 45 53 12 55 11 55 -29z"/>
<path d="M2027 249 c-30 -17 -9 -28 43 -22 28 3 50 2 50 -3 0 -5 -34 -41 -77
-81 -62 -57 -75 -74 -66 -84 10 -10 23 -10 64 -1 28 7 66 12 85 12 21 0 33 4
29 10 -3 6 -32 10 -63 10 l-56 0 57 58 c31 32 57 62 57 68 0 36 -81 57 -123
33z"/>
<path d="M775 208 c-66 -36 -85 -89 -40 -110 34 -15 32 -28 -4 -28 -32 0 -51
-18 -32 -29 6 -4 30 -5 53 -2 54 7 61 31 19 62 -38 28 -39 41 -5 68 33 26 56
27 52 4 -4 -23 21 -23 35 -2 25 40 -28 65 -78 37z"/>
<path d="M1034 89 c-3 -6 -2 -15 4 -21 12 -12 55 8 47 23 -8 12 -42 12 -51 -2z"/>
</g>
</svg>
